<svg version="1.2" xmlns="http://www.w3.org/2000/svg" viewBox="0 0 1920 261" width="1920" height="261">
	<title>image</title>
	<style>
		.s0 { fill: #ffffff } 
		.s1 { fill: #f57c14 } 
	</style>
	<g id="Background">
		<path id="Path 0" fill-rule="evenodd" class="s0" d="m0.1-0.1l125.2 0.3c117.7 0.3 125.6 0.5 131.7 2.2 3.6 1 9.9 3.4 14 5.4 5.4 2.6 9.5 5.6 14.5 10.7 4.7 4.6 8.1 9.2 10.2 13.5 1.7 3.6 3.9 9.6 4.9 13.5 1.8 6.5 1.9 12.1 1.9 155l-2.3 8c-1.3 4.4-3.8 10.7-5.5 14-1.8 3.3-5.9 8.7-9.2 12-3.4 3.4-9 7.6-13 9.7-3.9 2-10.6 4.7-23 8.3l-249.5 0.5zm40.9 215.1c167.5-0.7 198.9-1.1 202-1.9 2.5-0.6 6.1-2.1 8-3.4 1.9-1.2 4.5-3.8 5.8-5.7 1.3-2 2.9-5.3 3.5-7.5 0.9-3 1.2-21.6 1.2-70.5 0-60.5-0.1-67-1.7-71.5-0.9-2.8-3.4-6.7-5.5-8.8-2.5-2.5-5.6-4.4-9.3-5.5-4.9-1.5-15.3-1.7-104.7-2l-99.2-0.3z"/>
		<path id="Path 1" class="s0" d="m1837 5.5v4.5h12v31h10v-31h12v-9h-34z"/>
		<path id="Path 2" class="s0" d="m356 126.5v126.5h281v-38h-239v-69h224c0.8-5 1.9-13.5 3-22 1.1-8.5 2-15.8 2-16.3 0-0.4-51.5-0.7-114.5-0.7h-114.5v-69h229v-38h-271z"/>
		<path id="Path 3" class="s0" d="m657 0.5c0 0.3 37.1 57.4 82.5 127l82.5 126.5h28c127.9-196.1 165-253.2 165-253.5 0-0.3-10.9-0.5-24.3-0.4h-24.2c-99.2 152.8-128.7 198-129.5 199-1.4 1.8-6.3-5.5-66.5-98.4l-65-100.2c-37.6-0.4-48.5-0.3-48.5 0z"/>
		<path id="Path 4" fill-rule="evenodd" class="s0" d="m1288.5 0.5l8 2.3c4.4 1.3 10.7 3.6 14 5.2 3.3 1.7 8.7 5.3 11.9 8.2 3.3 2.9 7.7 8 9.8 11.3 2.2 3.3 5 9.5 6.3 13.8 1.4 4.2 2.9 12.5 3.5 18.4 0.5 6 1 36 1 66.8 0 33.5-0.4 60.4-1.1 67-0.6 6.1-2.2 14.4-3.5 18.5-1.2 4.1-4 10.2-6.2 13.5-2.1 3.3-6.1 8-8.8 10.5-2.8 2.5-8.1 6.2-12 8.2-3.8 2-10.9 4.7-24.9 8.3h-191l-9-2.3c-5-1.3-12.2-4-16-6-4.2-2.2-9.6-6.3-13.5-10.2-4.1-4.1-7.7-8.9-9.7-13-1.7-3.6-3.9-9.4-4.8-13-0.9-3.6-2.1-12.1-2.5-19-0.5-6.9-0.9-35-0.9-62.5 0-27.5 0.4-55.6 0.9-62.5 0.4-6.9 1.6-15.4 2.5-19 0.9-3.6 3.1-9.4 4.8-13 2.1-4.4 5.3-8.7 10.1-13.5 4.7-4.6 9.3-8.1 13.6-10.1 3.6-1.8 9-3.9 12-4.8 3-0.9 8.2-2 11.5-2.5 3.3-0.5 48.3-0.8 194-0.6zm-195 41.9c-3.4 1.7-5.9 3.9-7.7 6.8-1.7 2.5-3.2 7-3.9 10.8-0.7 4.4-0.9 27.4-0.7 70.5 0.3 46.7 0.7 65 1.6 67.8 0.7 2 2.9 5.5 4.9 7.8 2.1 2.2 5.8 4.8 8.3 5.7 4.1 1.6 12.4 1.7 95 1.7 76.4 0 91.1-0.2 94.5-1.4 2.2-0.8 5.5-2.9 7.4-4.5 1.9-1.7 4.3-5.1 5.4-7.6 1.4-3.3 2.2-8.3 2.8-19 0.5-8 0.8-32.7 0.8-55 0-22.3-0.4-46.8-0.8-54.5-0.6-12.1-1.1-14.7-3.4-19.5-1.4-3-4-6.5-5.6-7.7-1.7-1.3-5.7-3.1-8.9-4-5.1-1.5-14.1-1.7-85.7-1.9-44-0.1-84.3 0.2-89.5 0.7-6.9 0.6-10.9 1.5-14.5 3.3z"/>
		<path id="Path 5" class="s0" d="m1439.5 62l62 62-129 129h55l100-103.3c9.3 9.9 19.6 20.7 28.8 30.3l16.8 17.5 26.4-26.5-47-47 124-124h-54c-27.1 29-43.6 46.2-54 57-10.5 10.7-24 24.6-30 30.8-6.1 6.2-11.2 11.2-11.5 11.2-0.3 0-21.9-22.3-48-49.5l-47.5-49.5h-54z"/>
		<path id="Path 6" class="s1" d="m1548.3 25.7l25.8 25.8c19.2-20.2 24.8-26.3 24.9-26.8 0-0.4-5.1-6.1-11.2-12.6l-11.3-11.9-54-0.2z"/>
		<path id="Path 7" class="s1" d="m1719.9 49.5c-26.1 27.2-47.7 49.5-48.2 49.5-0.4 0-11.1-10.7-23.7-23.8l-23-23.7-25.5 25.5 47 47-129 129 55-0.1 47.5-49.9 12 0.5-5.9-6c-3.6 3.1-1.6 1.1 2-2.5 3.6-3.6 14.9-15.2 25.2-25.8l18.7-19.2c20.7 21.3 43.1 44.5 63.1 65.3l36.4 37.8c41.5-0.1 53.5-0.4 53.5-0.8 0-0.5-28.7-29.5-63.8-64.5l-63.7-63.8 124-124h-54.2z"/>
		<path id="Path 8" class="s0" d="m1875 21v20h9l0.5-26.4c10.5 14 13.4 17 14 16.5 0.5-0.5 3.5-4.3 6.5-8.5l5.5-7.7 0.5 26.1h9v-40c-8.5 0-8.6 0.1-15.3 9.2-3.9 5.3-7.2 8.9-7.6 8.3-0.5-0.6-3.6-4.7-6.9-9.3-6.2-8.1-6.2-8.2-10.7-8.2h-4.5z"/>
		<path id="Path 9" class="s0" d="m1609.9 213.4c-5.7 5.6-10.3 10.6-10.1 11.1 0.1 0.6 6.3 7.2 13.7 14.7l13.5 13.8h54.5l-50-50.1-11.3 0.4z"/>
		<path id="Path 10" fill-rule="evenodd" class="s0" d="m994.1 362h26.9l32.7 48.8c17.9 26.8 42.2 63 75.3 112.2h-41.5l-23.5-36h-113l-23.5 35.9-20.8 0.1c-16.3 0-20.5-0.3-20-1.2 0.4-0.7 23.9-35.7 52.1-77.8 28.3-42.1 52.3-77.7 53.4-79.3zm-23.9 95.2c-0.1 0.5 16.6 0.8 37.3 0.8 20.6 0 37.5-0.2 37.5-0.5 0-0.2-8.2-12.9-18.2-28.2-9.9-15.3-18.4-28.1-18.7-28.5-0.4-0.4-9 11.9-19.2 27.4-10.1 15.5-18.5 28.6-18.7 29z"/>
		<path id="Path 11" fill-rule="evenodd" class="s0" d="m263 363h77.3c61.1 0 78.6 0.3 83.7 1.4 3.6 0.7 8.4 2.3 10.8 3.5 2.3 1.1 6.1 3.8 8.3 5.8 2.3 2.1 5.2 5.6 6.5 7.8 1.3 2.2 3 7.1 3.9 11 1.4 5.7 1.6 11.3 1.3 30-0.3 20.6-0.6 23.6-2.5 28.5-1.2 3-4.3 7.9-7 10.9-2.6 2.9-6.6 6.4-8.8 7.6-2.2 1.3-5.8 2.9-8 3.6-3 1-19.4 1.5-131 2.4l-0.5 47.5h-34zm34 81c105.4 0 114.5-0.2 117.5-1.5q3.5-1.5 5-5c1.1-2.6 1.5-7.4 1.5-18.5 0-10.1-0.4-16.1-1.3-18.3-1-2.3-2.5-3.7-5.5-4.9-3.8-1.6-9.2-1.8-60.7-1.8h-56.5z"/>
		<path id="Path 12" fill-rule="evenodd" class="s0" d="m584 363.1c48.7-0.1 59.7 0.2 65.5 1.5 3.9 0.8 9.2 2.7 11.9 4.2 2.7 1.5 6.9 4.9 9.3 7.7 2.4 2.7 5.3 7.5 6.4 10.5 1.1 3 2.4 9.8 2.9 15 0.5 5.2 0.9 23.7 0.9 41 0 17.3-0.4 35.8-0.9 41-0.5 5.2-1.8 12-2.9 15-1.2 3.5-3.9 7.7-7.3 11.3-3.2 3.6-7.3 6.8-10.3 8.2-2.8 1.2-7.4 2.8-10.3 3.4-3.5 0.7-24.8 1.1-64.7 1.1-39.9 0-61.2-0.4-64.8-1.1-2.8-0.6-7.5-2.2-10.2-3.5-2.8-1.3-7-4.2-9.4-6.6-2.3-2.4-5.2-6.1-6.4-8.3-1.1-2.2-2.7-6.3-3.5-9-1.1-3.9-1.6-13.6-1.9-44.5-0.3-25.2-0.1-42.9 0.6-48.8 0.6-5 2-11.6 3-14.5 1.1-2.8 4-7.5 6.4-10.2 2.4-2.8 6.8-6.3 9.8-7.9 3-1.6 8.1-3.5 11.4-4.2 4.4-0.9 21.3-1.3 64.5-1.3zm-58.9 36.9c-2 3.4-2.1 4.8-2.1 43.2 0 33.4 0.2 40.3 1.5 42.8 0.8 1.7 3 3.7 5 4.5 3 1.3 11.4 1.5 55 1.5 43.6 0 52-0.2 55-1.5q3.5-1.5 5-5c1.2-2.9 1.5-10.1 1.5-42.8 0-35.3-0.2-39.5-1.8-42.7-1.1-2.4-2.8-3.9-5.2-4.7-2.5-0.9-17.6-1.2-54.5-1.2-37.3 0-51.9 0.3-54.2 1.2-1.8 0.7-4.1 2.8-5.2 4.7z"/>
		<path id="Path 13" class="s0" d="m726 443v80l152.5-0.5c1.8-17.1 2.6-23.9 2.9-26.3l0.6-4.2h-122v-129h-34z"/>
		<path id="Path 14" class="s0" d="m1154 443v80h34c0-92.2 0.3-119 0.8-119 0.4 0 28.3 17 62 37.8l61.3 37.7-0.1 43.5h34v-160h-34.1l-0.4 75.9-123.5-75.9h-34z"/>
		<path id="Path 15" fill-rule="evenodd" class="s0" d="m1393 363h77.3c65.2 0 78.3 0.3 84.2 1.6 3.8 0.8 9.2 2.7 11.9 4.2 2.7 1.5 6.9 4.9 9.3 7.7 2.4 2.7 5.3 7.4 6.4 10.3 1 2.8 2.3 9.1 2.9 13.9 0.5 4.9 1 23.9 1 42.3 0 18.4-0.5 37.4-1 42.3-0.6 4.8-2 11.3-3.2 14.5-1.4 3.6-4 7.6-7.2 11-2.8 2.9-7.4 6.4-10.1 7.7-2.8 1.2-7.4 2.8-10.3 3.4-3.6 0.8-29.7 1.1-161.2 1.1zm35 129c104.5 0 113.5-0.2 116.5-1.5q3.5-1.5 5-5c1.2-2.9 1.5-10.1 1.5-42.7 0-35.4-0.2-39.6-1.8-42.8-1.1-2.4-2.8-3.9-5.2-4.7-2.5-0.9-18.9-1.2-59.8-1.2l-56.2-0.1z"/>
	</g>
</svg>