<svg version="1.2" xmlns="http://www.w3.org/2000/svg" viewBox="0 0 119 24" width="119" height="24">
	<title>onepoint</title>
	<style>
		.s0 { fill: white } 
		.s1 { fill: #009ddf } 
	</style>
	<path class="s0" d="m7.8 3.2c-4.6 0-7.8 3.4-7.8 7.5 0 4 3.2 7.3 7.8 7.3 4.5 0 7.8-3.4 7.8-7.4 0-4-3.3-7.4-7.8-7.4zm0 10.6c-1.7 0-3-1.5-3-3.2 0-1.7 1.2-3.1 3-3.1 1.7 0 3 1.5 3 3.2 0 1.7-1.2 3.1-3 3.1zm62.9-10.6c-4.6 0-7.8 3.4-7.8 7.5 0 4 3.2 7.3 7.7 7.3 4.6 0 7.8-3.4 7.8-7.4 0-4-3.2-7.4-7.7-7.4zm0 10.6c-1.8 0-3-1.5-3-3.2 0-1.7 1.1-3.1 2.9-3.1 1.8 0 3 1.5 3 3.2 0 1.7-1.1 3.1-2.9 3.1zm-54.1-10.2h5v2c0.9-1.2 2.2-2.3 4.2-2.3 3 0 4.8 2 4.8 5.2v9.2h-5v-7.7c0-1.5-0.8-2.3-2-2.3-1.2 0-2 0.8-2 2.3v7.7h-5c0 0 0-14.1 0-14.1zm29.2 7.4c0-4.2-2.2-7.7-7.1-7.7-4.3-0.1-7.2 3.2-7.2 7.4 0 4.3 3.2 7.3 7.6 7.3 2.8 0 4.8-1.1 6.2-2.8l-2.8-2.3c-1 1-1.9 1.4-3.2 1.4-1.5 0-2.6-0.7-3-2.3h9.4c0.1-0.3 0.1-0.7 0.1-1zm-9.6-1.6c0.2-1.5 1.2-2.5 2.5-2.5 1.3 0 2.2 0.9 2.4 2.5zm19.9-6.2c-2.1 0-3.3 1.1-4.3 2.2v-1.9h-4.9v18.3h4.9v-5.9c1 1.1 2.2 2.1 4.4 2.1 3.3 0 6.2-2.8 6.2-7.4 0-4.5-2.9-7.4-6.3-7.4zm-1.5 10.7c-1.6 0-2.9-1.4-2.9-3.3 0-1.8 1.3-3.2 2.9-3.2 1.6 0 2.9 1.4 2.9 3.2 0 1.9-1.3 3.3-2.9 3.3zm30-10.3h-5v14.1h5zm1.7 0h4.9v2c0.9-1.2 2.3-2.3 4.2-2.3 3 0 4.8 2 4.8 5.2v9.2h-4.9v-7.7c0-1.5-0.8-2.3-2-2.3-1.2 0-2.1 0.8-2.1 2.3v7.7h-4.9c0 0 0-14.1 0-14.1zm16.5 14.1v-10.1h-1.7v-4h1.7v-3.6h5v3.6h3.2v4h-3.2v10.1c0 0-5 0-5 0z"/>
	<path class="s1" d="m115.9 15q0 0.6-0.2 1.2-0.3 0.5-0.7 0.9-0.4 0.5-1 0.7-0.5 0.2-1.1 0.2-0.6 0-1.2-0.2-0.5-0.2-0.9-0.7-0.5-0.4-0.7-0.9-0.2-0.6-0.2-1.2 0-0.6 0.2-1.1 0.2-0.6 0.7-1 0.4-0.4 0.9-0.7 0.6-0.2 1.2-0.2c1.6 0 3 1.3 3 3z"/>
</svg>