<svg version="1.2" xmlns="http://www.w3.org/2000/svg" viewBox="0 0 200 200" width="200" height="200">
	<title>bulles</title>
	<defs>
		<linearGradient id="g1" x2="1" gradientUnits="userSpaceOnUse" gradientTransform="matrix(-0.318,-18.215,92.233,-1.61,100.865,76.108)">
			<stop offset="0" stop-color="#f2f4f8"/>
			<stop offset=".01" stop-color="#f2f4f8"/>
			<stop offset="1" stop-color="#bebebe"/>
		</linearGradient>
		<linearGradient id="g2" x2="1" gradientUnits="userSpaceOnUse" gradientTransform="matrix(-12.426,-22.417,22.417,-12.426,52.48,69.712)">
			<stop offset="0" stop-color="#6c0c0c"/>
			<stop offset=".49" stop-color="#ff994e"/>
			<stop offset="1" stop-color="#ffffff"/>
		</linearGradient>
		<linearGradient id="g3" x2="1" gradientUnits="userSpaceOnUse" gradientTransform="matrix(-8.584,-15.485,15.485,-8.584,72.442,66.246)">
			<stop offset="0" stop-color="#0073dd"/>
			<stop offset=".06" stop-color="#0073dd"/>
			<stop offset=".59" stop-color="#43d9ff"/>
			<stop offset="1" stop-color="#75bdff"/>
		</linearGradient>
	</defs>
	<style>
		tspan { white-space:pre } 
		.s0 { fill: #f1b269;stroke: #5b3751;stroke-linecap: round;stroke-linejoin: round;stroke-width: 5 } 
		.s1 { fill: url(#g1);stroke: #5b3751;stroke-linecap: round;stroke-linejoin: round;stroke-width: 5 } 
		.s2 { fill: url(#g2);stroke: #000000;stroke-linecap: round;stroke-linejoin: round;stroke-width: 2 } 
		.s3 { fill: url(#g3);stroke: #000000;stroke-linecap: round;stroke-linejoin: round;stroke-width: 2 } 
	</style>
	<g id="bulles">
		<g id="github">
			<path id="Forme 2" class="s0" d="m53 42h94.5c16.6 0 30 13.4 30 30v55.2c0 16.5-13.4 30-30 30h-94.5c-16.6 0-30-13.5-30-30v-55.2c0-16.6 13.4-30 30-30zm-25.8 31.6"/>
			<path id="Calque 7" class="s1" d="m24.2 73.3l153-1.2c0 0 1.2-27.4-16.8-28.2-24.2-1.2-118.5 0.3-118.5 0.3-8.2 2.4-18-0.2-17.7 29.1z"/>
			<path id="bouton rouge" fill-rule="evenodd" class="s2" d="m45.8 65.9c-4.1 0-7.3-3.3-7.3-7.4 0-4.1 3.2-7.4 7.3-7.4 4.1 0 7.4 3.3 7.4 7.4 0 4.1-3.3 7.4-7.4 7.4z"/>
			<path id="bouton bleu" fill-rule="evenodd" class="s3" d="m68.3 65.9c-4.1 0-7.4-3.3-7.4-7.4 0-4.1 3.3-7.4 7.4-7.4 4.1 0 7.4 3.3 7.4 7.4 0 4.1-3.3 7.4-7.4 7.4z"/>
		</g>
	</g>
</svg>